<?xml version="1.0" encoding="UTF-8"?>
<svg width="100%" height="200px" viewBox="0 0 1440 172" version="1.1" xmlns="http://www.w3.org/2000/svg" xmlns:xlink="http://www.w3.org/1999/xlink">
    <!-- Generator: Sketch 51.3 (57544) - http://www.bohemiancoding.com/sketch -->
    <title>Mask</title>
    <desc>Created with Sketch.</desc>
    <defs>
        <linearGradient x1="100%" y1="50%" x2="-2.22044605e-14%" y2="50%" id="linearGradient-1">
            <stop stop-color="#D226F2" stop-opacity="0.5" offset="0%"></stop>
            <stop stop-color="#08187F" stop-opacity="0" offset="100%"></stop>
        </linearGradient>
    </defs>
    <g id="Website" stroke="none" stroke-width="1" fill="none" fill-rule="evenodd">
        <rect id="Mask" x="0" y="0" width="1440" height="172"></rect>
        <rect id="Rectangle-9-Copy" fill="url(#linearGradient-1)" x="340" y="35" width="868" height="24" rx="12"></rect>
        <rect id="Rectangle-9-Copy-4" fill="url(#linearGradient-1)" x="25" y="35" width="868" height="24" rx="12"></rect>
        <rect id="Rectangle-9-Copy-7" fill="url(#linearGradient-1)" x="-567" y="35" width="868" height="24" rx="12"></rect>
        <rect id="Rectangle-9-Copy-2" fill="url(#linearGradient-1)" x="276" y="70" width="868" height="24" rx="12"></rect>
        <rect id="Rectangle-9-Copy-5" fill="url(#linearGradient-1)" x="-39" y="70" width="868" height="24" rx="12"></rect>
        <rect id="Rectangle-9-Copy-8" fill="url(#linearGradient-1)" x="-631" y="70" width="868" height="24" rx="12"></rect>
        <rect id="Rectangle-9-Copy-3" fill="url(#linearGradient-1)" x="398" y="103" width="868" height="24" rx="12"></rect>
        <rect id="Rectangle-9-Copy-6" fill="url(#linearGradient-1)" x="83" y="103" width="868" height="24" rx="12"></rect>
        <rect id="Rectangle-9-Copy-9" fill="url(#linearGradient-1)" x="-509" y="103" width="868" height="24" rx="12"></rect>
        <rect id="Rectangle-9-Copy" fill="url(#linearGradient-1)" transform="translate(665.000000, 47.000000) scale(-1, 1) translate(-665.000000, -47.000000) " x="231" y="35" width="868" height="24" rx="12"></rect>
        <rect id="Rectangle-9-Copy-4" fill="url(#linearGradient-1)" transform="translate(980.000000, 47.000000) scale(-1, 1) translate(-980.000000, -47.000000) " x="546" y="35" width="868" height="24" rx="12"></rect>
        <rect id="Rectangle-9-Copy-7" fill="url(#linearGradient-1)" transform="translate(1572.000000, 47.000000) scale(-1, 1) translate(-1572.000000, -47.000000) " x="1138" y="35" width="868" height="24" rx="12"></rect>
        <rect id="Rectangle-9-Copy-2" fill="url(#linearGradient-1)" transform="translate(729.000000, 82.000000) scale(-1, 1) translate(-729.000000, -82.000000) " x="295" y="70" width="868" height="24" rx="12"></rect>
        <rect id="Rectangle-9-Copy-5" fill="url(#linearGradient-1)" transform="translate(1044.000000, 82.000000) scale(-1, 1) translate(-1044.000000, -82.000000) " x="610" y="70" width="868" height="24" rx="12"></rect>
        <rect id="Rectangle-9-Copy-8" fill="url(#linearGradient-1)" transform="translate(1636.000000, 82.000000) scale(-1, 1) translate(-1636.000000, -82.000000) " x="1202" y="70" width="868" height="24" rx="12"></rect>
        <rect id="Rectangle-9-Copy-3" fill="url(#linearGradient-1)" transform="translate(607.000000, 115.000000) scale(-1, 1) translate(-607.000000, -115.000000) " x="173" y="103" width="868" height="24" rx="12"></rect>
        <rect id="Rectangle-9-Copy-6" fill="url(#linearGradient-1)" transform="translate(922.000000, 115.000000) scale(-1, 1) translate(-922.000000, -115.000000) " x="488" y="103" width="868" height="24" rx="12"></rect>
        <rect id="Rectangle-9-Copy-9" fill="url(#linearGradient-1)" transform="translate(1514.000000, 115.000000) scale(-1, 1) translate(-1514.000000, -115.000000) " x="1080" y="103" width="868" height="24" rx="12"></rect>
    </g>
</svg>