<?xml version="1.0" encoding="UTF-8"?>
<svg width="60px" height="72px" viewBox="0 0 60 72" version="1.1" xmlns="http://www.w3.org/2000/svg" xmlns:xlink="http://www.w3.org/1999/xlink">
    <!-- Generator: Sketch 51.3 (57544) - http://www.bohemiancoding.com/sketch -->
    <title>Group 11</title>
    <desc>Created with Sketch.</desc>
    <defs></defs>
    <g id="Website" stroke="none" stroke-width="1" fill="none" fill-rule="evenodd">
        <g id="Group-11" transform="translate(-26.000000, -20.000000)">
            <rect id="Rectangle-3-Copy" opacity="0.119999997" x="0" y="0" width="112" height="112"></rect>
            <path d="M51.7460323,37.4374584 C51.7460323,37.2499596 51.8866569,37.1093349 52.1679063,37.0155844 C52.5429061,36.8280856 52.8007173,36.7812093 52.9413419,36.8749598 C53.0819666,36.9687103 53.1288408,37.0390226 53.0819666,37.0858968 C53.0350924,37.1327709 52.9179038,37.2030833 52.7304049,37.2968338 L52.4491556,37.4374584 C52.3554051,37.5312089 52.2147804,37.5780831 52.0272816,37.5780831 C51.8397828,37.5780831 51.7460323,37.5312089 51.7460323,37.4374584 Z M55.4022736,37.4374584 L55.2616489,37.2968338 L54.9803996,37.2968338 L54.7694626,37.0858968 C54.7225884,37.0390226 54.7694626,36.9687103 54.9100872,36.8749598 C55.0507119,36.7812093 55.3085231,36.8280856 55.6835229,37.0155844 C55.9647722,37.1093349 56.1053969,37.2265214 56.1053969,37.3671461 C56.1053969,37.5077708 56.0116464,37.5780831 55.8241476,37.5780831 C55.6366487,37.5780831 55.4960241,37.5312089 55.4022736,37.4374584 Z M37.5429411,89.2576474 L37.6835658,89.0467104 L37.5429411,89.2576474 Z M37.5429411,89.2576474 L37.4023165,89.4685844 C36.2773192,88.9060857 34.355448,88.4373375 31.6367052,88.0623377 C30.5117079,87.9685872 29.6679599,87.8748389 29.1054613,87.7810884 C27.6992146,87.4998391 26.7617161,86.8904662 26.292968,85.9529678 C25.8242198,85.0154693 25.9179681,83.5623485 26.5742173,81.5936031 C26.7617161,81.124855 26.7617161,80.2342307 26.5742173,78.9217345 L26.4335926,78.6404852 C26.3398421,77.8904877 26.292968,77.327989 26.292968,76.9529892 C26.292968,76.2967401 26.4335926,75.7342414 26.714842,75.2654932 C27.1835901,74.3279948 28.0273381,73.6248714 29.2460859,73.1561233 L29.6679599,73.0154986 C30.6992067,72.7342493 31.4023301,72.4061258 31.7773299,72.0311259 L32.6210779,70.9061286 C33.1835765,70.0623806 33.6523247,69.499882 34.0273245,69.2186327 C33.6523247,66.968638 33.933574,64.4842682 34.8710725,61.7655254 C36.2773192,57.453035 38.996062,52.9061715 43.0273031,48.1249329 C44.1523004,46.6249358 44.9491742,45.1249408 45.4179224,43.6249437 C45.8866705,42.3124475 46.1679199,40.7655762 46.2616704,38.9843297 C46.2616704,38.5155816 46.2147962,37.6249573 46.1210457,36.3124611 C45.9335469,33.4062173 45.9335469,31.1093485 46.1210457,29.4218525 C46.402295,26.6093592 47.2929172,24.4531151 48.7929143,22.953118 C50.6679091,20.9843727 53.4804024,20 57.2303942,20 C60.5116357,20 63.0428796,21.0312468 64.8241261,23.0937426 C66.2303727,24.7812386 67.1678712,27.1249837 67.6366194,30.1249759 C67.8241182,31.9062223 67.9178687,34.4374663 67.9178687,37.7187078 L67.9178687,38.4218311 C67.8241182,40.2968259 68.2459922,42.1249465 69.1834907,43.906193 C69.8397399,44.9374398 70.9178609,46.437437 72.417858,48.4061823 L72.5584827,48.5468069 C75.6522253,52.2967987 77.8553457,55.8124153 79.1678419,59.0936568 C80.667839,63.0311474 80.8084637,66.7342629 79.5897159,70.2030053 L80.1522146,70.4842546 L80.7147132,70.9061286 C81.3709624,71.3748768 81.8865847,72.4061258 82.2615845,73.9998713 L82.2615845,74.1404959 C82.6365843,75.5467426 82.9647078,76.4373647 83.2459572,76.8123645 C84.7459543,78.4998605 85.4490776,79.859233 85.3553271,80.8904798 L85.4959518,80.8904798 C85.4022013,81.9217267 84.7459543,82.812351 83.5272065,83.5623485 C83.0584583,83.7498473 82.355335,84.1248471 81.4178365,84.6873458 C78.8865926,85.8123431 77.1990966,86.9373404 76.3553486,88.0623377 L75.9334746,87.7810884 L76.3553486,88.0623377 C74.2928528,90.4998312 71.995984,91.8123295 69.46474,91.9998283 C68.3397427,92.0935788 67.2616196,91.8592037 66.2303727,91.296705 C65.1991259,90.7342064 64.4022521,89.8904584 63.8397534,88.765461 C63.746003,88.4842117 63.6522546,88.1560882 63.5585041,87.7810884 C62.4335068,87.8748389 60.9335097,87.7810884 59.0585148,87.4998391 C57.4647694,87.2185897 56.3866462,87.1248392 55.8241476,87.2185897 C54.6991502,87.3123402 53.2929036,87.4998391 51.6054076,87.7810884 C50.3866598,88.0623377 49.4960376,88.2029624 48.933539,88.2029624 C48.2772898,89.7029595 47.0585442,90.6404559 45.2772977,91.0154557 C42.9335526,91.5779543 40.3085603,91.0623299 37.4023165,89.4685844 L37.5429411,89.2576474 Z M55.2616489,35.3280885 C56.0116464,35.5155873 56.6210214,35.7499624 57.0897695,36.0312118 C56.9022707,35.1874638 56.996019,34.4140281 57.3710189,33.7109048 C57.7460187,33.0077815 58.2147669,32.679658 58.7772655,32.7265322 C59.3397642,32.7734063 59.7616382,33.2187185 60.0428875,34.0624665 C60.3241368,34.9062145 60.3241368,35.7499624 60.0428875,36.5937104 L59.4803888,37.1562091 C60.3241368,37.4374584 60.8866355,37.6718336 61.1678848,37.8593324 C61.824134,37.2030833 62.1991316,36.3358993 62.2928821,35.2577761 C62.3866326,34.179653 62.246008,33.1718443 61.8710081,32.2343458 C61.1210106,30.7343487 60.0663257,29.9843512 58.7069532,29.9843512 C57.3475807,29.9843512 56.339772,30.7343487 55.6835229,32.2343458 C55.2147747,33.2655927 55.0741501,34.2968416 55.2616489,35.3280885 Z M48.7929143,37.9999571 C48.8866648,37.9062066 49.0507255,37.7655819 49.2851006,37.5780831 L49.6366623,37.2968338 L49.6366623,37.1562091 C49.0741636,36.6874609 48.8163525,35.9374613 48.8632267,34.9062145 C48.9101008,33.8749676 49.1913502,33.335905 49.7069746,33.2890308 C50.2225991,33.2421566 50.621035,33.523406 50.9022843,34.1327788 C51.1835336,34.7421516 51.2772841,35.3749626 51.1835336,36.0312118 C51.5585334,35.7499624 52.0272816,35.5155873 52.5897803,35.3280885 C52.6835308,34.0155923 52.4491556,32.914031 51.8866569,32.0234088 C51.3241583,31.1327867 50.6444731,30.6874745 49.8475993,30.6874745 C49.0507255,30.6874745 48.4179145,31.1562227 47.9491663,32.0937212 C47.4804182,33.0312196 47.3163553,34.0859046 47.45698,35.2577761 C47.5976047,36.4296476 48.0429168,37.3437079 48.7929143,37.9999571 Z M47.3866677,40.953075 C47.667917,41.7030725 48.3710403,42.4061959 49.4960376,43.062445 C49.777287,43.2499439 50.199161,43.6015055 50.7616596,44.11713 C51.3241583,44.6327545 51.8163446,44.9843161 52.2382186,45.171815 C52.6600926,45.3593138 53.1522789,45.4530643 53.7147776,45.4530643 C54.4647751,45.5468148 55.1678984,45.4530643 55.8241476,45.171815 C56.1991474,44.9843161 56.7382079,44.6796287 57.4413312,44.2577547 C58.1444545,43.8358807 58.683515,43.5311932 59.0585148,43.3436943 C60.7460108,42.8749462 61.8006958,42.0546342 62.2225698,40.8827627 C62.6444438,39.7108912 62.1522575,38.8437051 60.7460108,38.2812064 L59.0585148,37.7187078 C58.4022657,37.4374584 57.8866434,37.2030833 57.5116435,37.0155844 C56.1991474,36.1718364 54.9569614,35.7499624 53.7850899,35.7499624 C52.6132184,35.7499624 51.4179088,36.3593353 50.199161,37.5780831 L47.9491663,39.1249544 C47.3866677,39.5937026 47.1991688,40.2030775 47.3866677,40.953075 Z M42.7460537,76.5311152 L39.9335604,71.4686273 C38.996062,70.1561311 38.0116893,69.4061315 36.9804425,69.2186327 C35.9491957,69.0311338 35.1054477,69.3592573 34.4491985,70.2030053 L33.4648259,71.3280026 C32.9960777,71.9842518 32.6210779,72.4529999 32.3398285,72.7342493 C31.7773299,73.2029974 31.0742066,73.5779973 30.2304586,73.8592466 L29.6679599,74.1404959 C28.6367131,74.5154957 27.9570258,75.0076821 27.6289023,75.6170549 C27.3007788,76.2264277 27.2304664,77.1873644 27.4179653,78.4998605 L27.4179653,78.9217345 C27.6992146,80.2342307 27.7460888,81.2186033 27.5585899,81.8748525 C26.9023408,83.6560989 26.7617161,84.9217209 27.136716,85.6717184 C27.4179653,86.1404666 27.9804639,86.4685922 28.8242119,86.6560911 C29.2929601,86.8435899 30.2304586,87.0310909 31.6367052,87.2185897 C34.4491985,87.4998391 36.5116943,87.9685872 37.8241905,88.6248364 C40.2616839,89.9373325 42.5585549,90.452957 44.714799,90.1717077 C47.0585442,89.7967079 48.3241662,88.4373375 48.511665,86.0935924 C48.6054155,85.3435949 48.2772898,84.3592223 47.5272923,83.1404745 C47.0585442,82.4842253 46.2616704,81.4061043 45.136673,79.9061072 C43.8241769,78.3123617 43.0273031,77.1873644 42.7460537,76.5311152 Z M64.4022521,81.4529785 L64.4022521,81.3123538 C64.9647508,79.437359 65.2460001,78.1248607 65.2460001,77.3748632 C65.4334989,74.7498688 65.6678741,72.9217481 65.9491234,71.8905013 C66.4178716,69.8280055 67.4022442,68.5155093 68.9022414,67.9530107 C69.1834907,65.3280162 70.9647372,64.7655176 74.2459786,66.2655147 C75.6522253,66.8280134 76.6131598,67.390512 77.1287843,67.9530107 C77.6444087,68.5155093 77.7615953,69.1717585 77.4803459,69.921756 L78.1834692,69.921756 C78.7459679,68.0467612 77.2928471,66.4061394 73.8241046,64.9998927 C74.1991045,63.4061472 74.1756663,61.7655254 73.7537923,60.0780294 C73.3319183,58.3905335 72.6053568,56.7499117 71.57411,55.1561662 C70.730362,53.7499195 69.7928635,52.578048 68.7616167,51.6405496 C68.3866169,51.6405496 68.5272416,51.9686731 69.1834907,52.6249222 C70.4022385,53.7499195 71.3866112,55.2967908 72.1366087,57.2655362 C73.1678555,59.8905306 73.261606,62.3280241 72.417858,64.5780187 C71.8553593,64.3905199 71.3397348,64.2967694 70.8709867,64.2967694 C70.4022385,61.3905256 69.3241154,58.3905335 67.6366194,55.2967908 C66.6991209,53.7030454 65.7616246,51.5936754 64.8241261,48.9686809 C63.6991288,46.2499381 62.8553808,43.8593188 62.2928821,41.796823 C61.636633,42.7343215 60.6053862,43.4374448 59.1991395,43.906193 C58.9178902,43.9999435 58.449142,44.2343165 57.7928929,44.6093163 L56.9491449,45.171815 C55.917898,45.7343136 54.8866491,46.015563 53.8554023,46.015563 C52.8241554,46.015563 51.8866569,45.6874395 51.042909,45.0311903 L50.3397856,44.4686917 C49.8710375,43.9999435 49.4960376,43.7186942 49.2147883,43.6249437 L48.3710403,42.9218203 C48.2772898,44.8905657 47.7147912,47.2343108 46.6835443,49.9530536 C46.1210457,51.5467991 45.1835472,53.7499195 43.8710511,56.5624128 L42.8866784,58.8124075 C41.6679306,61.7186513 41.0116836,64.6248929 40.9179331,67.5311367 C39.6054369,65.7498902 39.1366866,63.5936461 39.5116864,61.0624021 C39.7929358,59.3749061 40.4023086,57.640536 41.3398071,55.8592895 C42.4648044,53.6092949 42.8398042,52.6249222 42.4648044,52.9061715 C40.4023086,56.2811635 39.1366866,59.0936568 38.6679385,61.3436514 C38.1991903,63.1248979 38.1991903,64.7655176 38.6679385,66.2655147 C39.2304371,67.9530107 40.4023086,69.3592573 42.1835551,70.4842546 L44.1523004,71.7498766 C45.6522975,72.8748739 46.7772948,73.9529971 47.5272923,74.9842439 C48.5585392,76.3904906 48.9101008,77.538926 48.5819773,78.4295482 C48.2538538,79.3201704 47.4804182,79.7654825 46.2616704,79.7654825 C47.1991688,80.8904798 47.8554158,81.8279783 48.2304157,82.5779758 C50.7616596,84.2654718 53.5741529,84.9217209 56.6678955,84.5467211 C59.29289,84.2654718 61.8710081,83.234225 64.4022521,81.4529785 Z M82.5428339,77.3748632 C82.0740857,76.906115 81.6756477,75.9217424 81.3475242,74.4217452 C81.0194007,72.9217481 80.6444009,71.9842518 80.2225269,71.609252 C79.8006529,71.2342521 79.3787789,70.9998791 78.9569049,70.9061286 C78.5350309,70.8123781 77.9490941,70.8123781 77.1990966,70.9061286 L76.9178473,70.9061286 C76.3553486,71.5623778 75.5350388,72.1483125 74.4569156,72.6639369 C73.3787925,73.1795614 72.4412962,73.3436221 71.6444223,73.1561233 C70.8475485,72.9686244 70.2147375,72.4764381 69.7459894,71.6795643 C69.2772412,70.8826905 68.9959919,70.0155065 68.9022414,69.078008 L68.7616167,69.078008 C67.8241182,69.5467562 67.1678712,70.5311288 66.7928714,72.0311259 C66.6053726,73.0623728 66.4178716,74.8904934 66.2303727,77.5154879 C66.2303727,78.2654854 65.9491234,79.5779837 65.3866248,81.4529785 L64.8241261,83.2810991 C64.2616274,85.4373433 64.2147533,87.1248392 64.6835014,88.3435871 C65.7147483,90.3123324 67.3319319,91.2029545 69.5350524,91.0154557 C71.7381728,90.8279568 73.7772305,89.6560832 75.6522253,87.4998391 C76.3084744,86.6560911 77.1522224,85.9060936 78.1834692,85.2498444 C78.8397184,84.7810963 79.7772147,84.2654718 80.9959625,83.7029731 C82.2147104,83.1404745 83.011582,82.7186005 83.3865818,82.4373511 C84.042831,81.968603 84.4178287,81.4529785 84.5115792,80.8904798 C84.5115792,80.0467318 83.85533,78.9217345 82.5428339,77.5154879 L82.5428339,77.3748632 Z M48.6522897,40.953075 L48.511665,40.953075 C48.3241662,40.7655762 48.2069775,40.5546392 48.1601033,40.3202641 C48.1132292,40.0858889 48.1601033,39.9687024 48.300728,39.9687024 C48.4413527,39.9687024 48.6054155,40.1093271 48.7929143,40.3905764 L48.933539,40.6718257 L50.0585363,41.6561984 C51.1835336,42.5936968 52.3085309,43.062445 53.4335283,43.062445 C54.5585256,43.062445 55.9647722,42.5468205 57.6522682,41.5155737 C58.027268,41.4218232 58.5428904,41.0936997 59.1991395,40.531201 L59.6210135,40.2499517 C59.8085123,40.1562012 59.9725752,39.9921406 60.1131998,39.7577654 C60.2538245,39.5233902 60.371011,39.4530779 60.4647615,39.5468284 C60.8397613,39.5468284 60.6991366,39.8515159 60.0428875,40.4608887 C59.3866383,41.0702615 58.683515,41.5624479 57.9335175,41.9374477 C56.0585227,42.8749462 54.6053997,43.3436943 53.5741529,43.3436943 C52.2616568,43.3436943 50.9491585,42.8749462 49.6366623,41.9374477 L48.6522897,40.953075 Z" id="linux-copy" fill="#FFFFFF"></path>
        </g>
    </g>
</svg>