<?xml version="1.0" encoding="UTF-8"?>
<svg width="53px" height="63px" viewBox="0 0 53 63" version="1.1" xmlns="http://www.w3.org/2000/svg" xmlns:xlink="http://www.w3.org/1999/xlink">
    <!-- Generator: Sketch 51.3 (57544) - http://www.bohemiancoding.com/sketch -->
    <title>Group 12</title>
    <desc>Created with Sketch.</desc>
    <defs></defs>
    <g id="Website" stroke="none" stroke-width="1" fill="none" fill-rule="evenodd">
        <g id="Group-12" transform="translate(-29.000000, -24.000000)">
            <rect id="Rectangle-3" opacity="0.119999997" x="0" y="0" width="112" height="112"></rect>
            <path d="M73.4015957,57.3252639 C73.3076234,59.0126191 73.6365255,60.6999742 74.3882979,62.3873293 C75.7039,65.8557823 78.241134,68.4805555 82,70.2616533 C80.8723404,73.8238468 79.133866,77.2454294 76.7845745,80.526397 C73.6835106,84.7447849 70.6294319,86.9008491 67.6223404,86.9945917 C66.3067383,86.9945917 64.6152489,86.5727529 62.5478723,85.7290754 C60.2925532,84.8853978 58.366134,84.463559 56.768617,84.463559 C55.1711,84.463559 53.1507085,84.9322681 50.7074468,85.8696883 C48.7340426,86.6196232 47.2304957,86.9945917 46.1968085,86.9945917 C44.1294319,87.0883344 41.9211,85.963431 39.5718085,83.6198815 C37.7863468,81.8387837 36.0008872,79.4014936 34.2154255,76.3080092 C32.8058511,73.7769765 31.7251766,71.4802994 30.9734043,69.4179757 C29.6578021,65.4808138 29,61.6842647 29,58.0283286 C29,53.9974239 29.7987596,50.5289731 31.3962766,47.6229719 C32.8998234,44.904456 34.8967191,42.8421323 37.3869681,41.4360031 C39.877217,40.0298738 42.4849298,39.2799389 45.2101064,39.1861962 C46.7136532,39.1861962 49.0159574,39.7486479 52.1170213,40.8735514 C54.0904255,41.6234863 55.3590426,41.9984548 55.9228723,41.9984548 C56.4867021,41.9984548 57.6613468,41.6703587 59.4468085,41.0141643 C61.2322702,40.3579699 62.6418447,39.8892609 63.6755319,39.608035 C65.4609936,39.139326 67.0585106,38.9518406 68.4680851,39.0455833 C73.8244681,39.5142923 77.8182617,41.6234863 80.4494681,45.3731651 C75.6569149,48.1854236 73.3076234,52.1694559 73.4015957,57.3252639 Z M65.3670213,34.1241308 L65.3670213,34.2647437 C62.3599298,37.7331967 59.1179085,39.3268091 55.6409574,39.0455833 C55.2650702,35.2959045 56.439717,31.9211942 59.1648936,28.9214525 C60.2925532,27.6090659 61.7491128,26.4841624 63.5345745,25.5467422 C65.3200362,24.609322 67.0585106,24.0937427 68.75,24 C69.0319149,27.7496788 67.9042553,31.1243891 65.3670213,34.1241308 Z" id="apple-copy" fill="#FFFFFF"></path>
        </g>
    </g>
</svg>