<?xml version="1.0" encoding="UTF-8"?>
<svg width="45px" height="19px" viewBox="0 0 45 19" version="1.1" xmlns="http://www.w3.org/2000/svg" xmlns:xlink="http://www.w3.org/1999/xlink">
    <!-- Generator: Sketch 51.3 (57544) - http://www.bohemiancoding.com/sketch -->
    <title>rUN Node logo Copy</title>
    <desc>Created with Sketch.</desc>
    <defs></defs>
    <g id="Symbols" stroke="none" stroke-width="1" fill="none" fill-rule="evenodd">
        <path d="M8.658,5.122 L8.424,8.944 L8.242,8.944 C8.008,8.814 7.462,8.632 6.734,8.632 C5.798,8.632 5.122,9.152 4.81,9.568 C4.498,9.984 4.16,10.816 4.16,12.246 L4.16,17.94 L0,17.94 L0,5.122 L4.16,5.122 L4.134,6.942 L4.186,6.942 C4.914,5.538 5.98,4.888 7.358,4.888 C8.216,4.888 8.658,5.122 8.658,5.122 Z M25.316,0 L25.316,10.452 C25.316,12.974 24.874,14.716 23.6,16.094 C22.352,17.446 20.402,18.226 17.802,18.226 C15.176,18.226 13.252,17.446 11.978,16.094 C10.73,14.716 10.288,12.974 10.288,10.452 L10.288,0 L14.526,0 L14.526,10.452 C14.526,11.726 14.63,12.714 15.228,13.442 C15.8,14.118 16.632,14.56 17.802,14.56 C18.972,14.56 19.804,14.118 20.376,13.442 C20.974,12.714 21.078,11.726 21.078,10.452 L21.078,0 L25.316,0 Z M44.782,0 L44.782,17.94 L40.466,17.94 L32.588,5.772 C32.588,5.772 32.666,7.93 32.666,9.828 L32.666,17.94 L28.558,17.94 L28.558,0 L33.056,0 L40.752,12.064 C40.752,12.064 40.674,10.036 40.674,8.138 L40.674,0 L44.782,0 Z" id="rUN-Node-logo-Copy" fill="#FFFFFF"></path>
    </g>
</svg>